<svg width="19" height="22" viewBox="0 0 19 22" fill="none" xmlns="http://www.w3.org/2000/svg">
<path d="M6.28479 18.6458C6.49182 19.3377 6.91649 19.9443 7.49572 20.3756C8.07495 20.8068 8.77785 21.0398 9.5 21.0398C10.2222 21.0398 10.925 20.8068 11.5043 20.3756C12.0835 19.9443 12.5082 19.3377 12.7152 18.6458H6.28479ZM0.875 17.6875H18.125V14.8125L16.2083 11.9375V7.14583C16.2083 6.26488 16.0348 5.39256 15.6977 4.57867C15.3606 3.76477 14.8664 3.02525 14.2435 2.40233C13.6206 1.7794 12.8811 1.28527 12.0672 0.948141C11.2533 0.611016 10.381 0.4375 9.5 0.4375C8.61905 0.4375 7.74672 0.611016 6.93283 0.948141C6.11894 1.28527 5.37942 1.7794 4.75649 2.40233C4.13357 3.02525 3.63943 3.76477 3.30231 4.57867C2.96518 5.39256 2.79167 6.26488 2.79167 7.14583V11.9375L0.875 14.8125V17.6875Z" fill="#413185"/>
</svg>
