<svg width="16" height="20" viewBox="0 0 16 20" fill="none" xmlns="http://www.w3.org/2000/svg">
<path d="M6.13397 8.53375L7.74347 7.05775C8.18393 6.65367 8.49364 6.12723 8.63288 5.54595C8.77212 4.96466 8.73454 4.35504 8.52497 3.79525L7.83722 1.95925C7.58055 1.27421 7.07231 0.712827 6.41608 0.389521C5.75985 0.066215 5.00504 0.00532104 4.30547 0.21925C1.73147 1.00675 -0.247032 3.39925 0.361968 6.241C0.762468 8.11 1.52822 10.456 2.98097 12.9527C4.19827 15.0555 5.72969 16.96 7.52222 18.6002C9.67472 20.5592 12.7497 20.0695 14.7282 18.2252C15.2586 17.7308 15.5804 17.0526 15.628 16.3291C15.6757 15.6055 15.4456 14.891 14.9847 14.3312L13.724 12.7997C13.344 12.3379 12.8347 12.0002 12.2613 11.8299C11.688 11.6597 11.0769 11.6647 10.5065 11.8442L8.42447 12.5005C8.34422 12.418 8.25197 12.3197 8.14997 12.2065C7.72193 11.7329 7.34322 11.217 7.01972 10.6667C6.705 10.1113 6.44767 9.52531 6.25172 8.91775C6.20983 8.79057 6.17057 8.66255 6.13397 8.53375Z" fill="#8CD4FD"/>
</svg>
