<svg width="59" height="59" viewBox="0 0 59 59" fill="none" xmlns="http://www.w3.org/2000/svg">
<circle cx="29.5" cy="29.5" r="29.5" fill="#FFD0D0"/>
<path d="M36.5838 36.5837C36.3733 36.7942 36.0879 36.9124 35.7902 36.9124C35.4926 36.9124 35.2071 36.7942 34.9967 36.5837L29.9707 31.5577L24.9447 36.5837C24.7343 36.7942 24.4488 36.9124 24.1512 36.9124C23.8535 36.9124 23.5681 36.7942 23.3576 36.5837C23.1471 36.3732 23.0289 36.0878 23.0289 35.7901C23.0289 35.4925 23.1471 35.207 23.3576 34.9966L28.3836 29.9706L23.3576 24.9446C23.1471 24.7342 23.0289 24.4487 23.0289 24.151C23.0289 23.8534 23.1471 23.5679 23.3576 23.3575C23.5681 23.147 23.8535 23.0288 24.1512 23.0288C24.4488 23.0288 24.7343 23.147 24.9447 23.3575L29.9707 28.3834L34.9967 23.3575C35.2071 23.147 35.4926 23.0288 35.7902 23.0288C36.0879 23.0288 36.3733 23.147 36.5838 23.3575C36.7943 23.5679 36.9125 23.8534 36.9125 24.151C36.9125 24.4487 36.7943 24.7342 36.5838 24.9446L31.5579 29.9706L36.5838 34.9966C36.7943 35.207 36.9125 35.4925 36.9125 35.7901C36.9125 36.0878 36.7943 36.3732 36.5838 36.5837Z" fill="#CF1515"/>
</svg>
