<svg width="59" height="59" viewBox="0 0 59 59" fill="none" xmlns="http://www.w3.org/2000/svg">
<circle cx="29.5" cy="29.5" r="29.5" fill="#FFD0D0"/>
<path d="M36.5841 36.5837C36.3736 36.7942 36.0881 36.9124 35.7905 36.9124C35.4928 36.9124 35.2074 36.7942 34.9969 36.5837L29.9709 31.5578L24.945 36.5837C24.7345 36.7942 24.4491 36.9124 24.1514 36.9124C23.8538 36.9124 23.5683 36.7942 23.3578 36.5837C23.1474 36.3733 23.0291 36.0878 23.0291 35.7901C23.0291 35.4925 23.1474 35.207 23.3578 34.9966L28.3838 29.9706L23.3578 24.9446C23.1474 24.7342 23.0291 24.4487 23.0291 24.1511C23.0291 23.8534 23.1474 23.568 23.3578 23.3575C23.5683 23.147 23.8538 23.0288 24.1514 23.0288C24.4491 23.0288 24.7345 23.147 24.945 23.3575L29.9709 28.3835L34.9969 23.3575C35.2074 23.147 35.4928 23.0288 35.7905 23.0288C36.0881 23.0288 36.3736 23.147 36.5841 23.3575C36.7945 23.568 36.9128 23.8534 36.9128 24.1511C36.9128 24.4487 36.7945 24.7342 36.5841 24.9446L31.5581 29.9706L36.5841 34.9966C36.7945 35.207 36.9128 35.4925 36.9128 35.7901C36.9128 36.0878 36.7945 36.3733 36.5841 36.5837Z" fill="#CF1515"/>
</svg>
