<svg width="46" height="47" viewBox="0 0 46 47" fill="none" xmlns="http://www.w3.org/2000/svg">
<circle cx="22.9108" cy="23.3757" r="22.9108" fill="#D8F1FF"/>
<path d="M26.5 19V27C26.5 27.5304 26.2893 28.0391 25.9142 28.4142C25.5391 28.7893 25.0304 29 24.5 29H17C17.5304 29 18.0391 28.7893 18.4142 28.4142C18.7893 28.0391 19 27.5304 19 27V18C19 17.4696 19.2107 16.9609 19.5858 16.5858C19.9609 16.2107 20.4696 16 21 16H28.25" stroke="#413185" stroke-linecap="round" stroke-linejoin="round"/>
<path d="M22.5 19.5H24M21.5 22.5H24M21.5 25.5H24M28.25 16C28.7141 16 29.1592 16.1844 29.4874 16.5126C29.8156 16.8408 30 17.2859 30 17.75V18.5C30 18.6326 29.9473 18.7598 29.8536 18.8536C29.7598 18.9473 29.6326 19 29.5 19H26.5V17.75C26.5 17.2859 26.6844 16.8408 27.0126 16.5126C27.3408 16.1844 27.7859 16 28.25 16Z" stroke="#413185" stroke-linecap="round" stroke-linejoin="round"/>
</svg>
