<svg width="46" height="46" viewBox="0 0 46 46" fill="none" xmlns="http://www.w3.org/2000/svg">
<circle cx="22.9108" cy="22.9108" r="22.9108" fill="#D8F1FF"/>
<path d="M27.5518 25.6574C26.8001 25.6574 26.0729 25.5352 25.3945 25.3152C25.2883 25.2792 25.174 25.2739 25.0648 25.2998C24.9557 25.3257 24.856 25.3819 24.7773 25.4619L23.8179 26.6658C22.0884 25.8408 20.469 24.2824 19.6073 22.4919L20.799 21.4774C20.964 21.3063 21.0129 21.068 20.9456 20.8541C20.7195 20.1758 20.6034 19.4486 20.6034 18.6969C20.6034 18.3669 20.3284 18.0919 19.9984 18.0919H17.884C17.554 18.0919 17.1568 18.2386 17.1568 18.6969C17.1568 24.3741 21.8806 29.0919 27.5518 29.0919C27.9856 29.0919 28.1568 28.7069 28.1568 28.3708V26.2624C28.1568 25.9324 27.8818 25.6574 27.5518 25.6574Z" fill="#413185"/>
</svg>
