<svg width="46" height="46" viewBox="0 0 46 46" fill="none" xmlns="http://www.w3.org/2000/svg">
<circle cx="22.9108" cy="22.9108" r="22.9108" fill="#D8F1FF"/>
<path d="M22.6568 15.1568C19.6204 15.1568 17.1568 17.3743 17.1568 20.1068C17.1568 24.5068 22.6568 30.5568 22.6568 30.5568C22.6568 30.5568 28.1568 24.5068 28.1568 20.1068C28.1568 17.3743 25.6931 15.1568 22.6568 15.1568ZM22.6568 22.8568C22.2216 22.8568 21.7963 22.7277 21.4345 22.486C21.0727 22.2443 20.7907 21.9007 20.6242 21.4987C20.4577 21.0967 20.4141 20.6543 20.499 20.2276C20.5839 19.8008 20.7934 19.4088 21.1011 19.1011C21.4088 18.7935 21.8008 18.5839 22.2276 18.499C22.6543 18.4142 23.0967 18.4577 23.4987 18.6242C23.9007 18.7907 24.2442 19.0727 24.486 19.4345C24.7277 19.7963 24.8568 20.2217 24.8568 20.6568C24.8561 21.24 24.6241 21.7993 24.2117 22.2117C23.7992 22.6241 23.24 22.8561 22.6568 22.8568Z" fill="#413185"/>
</svg>
