<svg width="22" height="22" viewBox="0 0 22 22" fill="none" xmlns="http://www.w3.org/2000/svg">
<path d="M19.7582 8.87919C19.7582 8.59065 19.6436 8.31394 19.4396 8.10991C19.2356 7.90589 18.9588 7.79127 18.6703 7.79127C18.3818 7.79127 18.1051 7.90589 17.901 8.10991C17.697 8.31394 17.5824 8.59065 17.5824 8.87919H19.7582ZM4.52739 8.87919C4.52739 8.59065 4.41277 8.31394 4.20875 8.10991C4.00472 7.90589 3.72801 7.79127 3.43947 7.79127C3.15094 7.79127 2.87422 7.90589 2.6702 8.10991C2.46617 8.31394 2.35156 8.59065 2.35156 8.87919H4.52739ZM20.077 11.8242C20.2822 12.0223 20.557 12.132 20.8422 12.1295C21.1275 12.127 21.4003 12.0126 21.602 11.8109C21.8038 11.6092 21.9182 11.3364 21.9206 11.0511C21.9231 10.7659 21.8135 10.491 21.6153 10.2859L20.077 11.8242ZM11.0549 1.26377L11.824 0.494614C11.62 0.290661 11.3434 0.176086 11.0549 0.176086C10.7664 0.176086 10.4897 0.290661 10.2857 0.494614L11.0549 1.26377ZM0.494482 10.2859C0.390574 10.3862 0.307695 10.5063 0.250678 10.639C0.193661 10.7717 0.16365 10.9145 0.162395 11.0589C0.161139 11.2034 0.188666 11.3466 0.243367 11.4803C0.298068 11.614 0.37885 11.7355 0.480997 11.8377C0.583144 11.9398 0.704612 12.0206 0.838313 12.0753C0.972014 12.13 1.11527 12.1575 1.25972 12.1563C1.40418 12.155 1.54693 12.125 1.67966 12.068C1.81239 12.011 1.93244 11.9281 2.0328 11.8242L0.494482 10.2859ZM5.6153 21.9342H16.4945V19.7584H5.6153V21.9342ZM19.7582 18.6704V8.87919H17.5824V18.6704H19.7582ZM4.52739 18.6704V8.87919H2.35156V18.6704H4.52739ZM21.6153 10.2859L11.824 0.494614L10.2857 2.03293L20.077 11.8242L21.6153 10.2859ZM10.2857 0.494614L0.494482 10.2859L2.0328 11.8242L11.824 2.03293L10.2857 0.494614ZM16.4945 21.9342C17.3601 21.9342 18.1902 21.5903 18.8023 20.9783C19.4144 20.3662 19.7582 19.536 19.7582 18.6704H17.5824C17.5824 18.959 17.4678 19.2357 17.2637 19.4397C17.0597 19.6437 16.783 19.7584 16.4945 19.7584V21.9342ZM5.6153 19.7584C5.32677 19.7584 5.05006 19.6437 4.84603 19.4397C4.64201 19.2357 4.52739 18.959 4.52739 18.6704H2.35156C2.35156 19.536 2.69541 20.3662 3.30749 20.9783C3.91956 21.5903 4.7497 21.9342 5.6153 21.9342V19.7584Z" fill="#413185"/>
</svg>
