<svg width="36" height="36" viewBox="0 0 36 36" fill="none" xmlns="http://www.w3.org/2000/svg">
<rect width="36" height="36" rx="10" fill="#E3F5FF"/>
<path d="M18 10C14.6876 10 12 12.4191 12 15.4C12 20.2 18 26.8 18 26.8C18 26.8 24 20.2 24 15.4C24 12.4191 21.3124 10 18 10ZM18 18.4C17.5253 18.4 17.0613 18.2592 16.6666 17.9955C16.272 17.7318 15.9643 17.357 15.7827 16.9184C15.601 16.4799 15.5535 15.9973 15.6461 15.5318C15.7387 15.0662 15.9673 14.6386 16.3029 14.3029C16.6386 13.9673 17.0662 13.7387 17.5318 13.6461C17.9973 13.5535 18.4799 13.601 18.9184 13.7827C19.357 13.9643 19.7318 14.272 19.9955 14.6666C20.2592 15.0613 20.4 15.5253 20.4 16C20.3993 16.6363 20.1462 17.2464 19.6963 17.6963C19.2464 18.1462 18.6363 18.3993 18 18.4Z" fill="#0092E6"/>
</svg>
