<svg width="36" height="36" viewBox="0 0 36 36" fill="none" xmlns="http://www.w3.org/2000/svg">
<rect width="36" height="36" rx="10" fill="#E3F5FF"/>
<path d="M23.395 20.5656C22.6433 20.5656 21.9161 20.4433 21.2378 20.2233C21.1315 20.1873 21.0172 20.182 20.9081 20.2079C20.7989 20.2338 20.6993 20.29 20.6206 20.37L19.6611 21.5739C17.9317 20.7489 16.3122 19.1906 15.4506 17.4L16.6422 16.3856C16.8072 16.2144 16.8561 15.9761 16.7889 15.7622C16.5628 15.0839 16.4467 14.3567 16.4467 13.605C16.4467 13.275 16.1717 13 15.8417 13H13.7272C13.3972 13 13 13.1467 13 13.605C13 19.2822 17.7239 24 23.395 24C23.8289 24 24 23.615 24 23.2789V21.1706C24 20.8406 23.725 20.5656 23.395 20.5656Z" fill="#0092E6"/>
</svg>
