<svg width="22" height="22" viewBox="0 0 22 22" fill="none" xmlns="http://www.w3.org/2000/svg">
<path d="M19.3438 16.1562H17.6961C17.5836 16.1562 17.4782 16.2054 17.4078 16.2922C17.2438 16.4914 17.068 16.6836 16.8828 16.8664C16.1256 17.6244 15.2286 18.2285 14.2414 18.6453C13.2188 19.0772 12.1196 19.2988 11.0094 19.2969C9.88675 19.2969 8.79925 19.0765 7.77738 18.6453C6.79026 18.2285 5.89325 17.6244 5.13597 16.8664C4.37733 16.1109 3.77242 15.2155 3.35472 14.2297C2.92113 13.2078 2.70316 12.1226 2.70316 11C2.70316 9.87732 2.92347 8.79216 3.35472 7.77029C3.77191 6.78357 4.37191 5.89529 5.13597 5.13357C5.90003 4.37185 6.78831 3.77185 7.77738 3.35466C8.79925 2.92341 9.88675 2.7031 11.0094 2.7031C12.1321 2.7031 13.2196 2.92107 14.2414 3.35466C15.2305 3.77185 16.1188 4.37185 16.8828 5.13357C17.068 5.31872 17.2414 5.51091 17.4078 5.70779C17.4782 5.79451 17.586 5.84372 17.6961 5.84372H19.3438C19.4914 5.84372 19.5828 5.67966 19.5008 5.55544C17.7032 2.76169 14.5578 0.912474 10.9836 0.921849C5.368 0.935912 0.865658 5.49451 0.921908 11.1031C0.978158 16.6226 5.47347 21.0781 11.0094 21.0781C14.5743 21.0781 17.7055 19.2312 19.5008 16.4445C19.5805 16.3203 19.4914 16.1562 19.3438 16.1562ZM21.4274 10.8523L18.1016 8.22732C17.9774 8.12888 17.7969 8.21794 17.7969 8.37497V10.1562H10.4375C10.3344 10.1562 10.25 10.2406 10.25 10.3437V11.6562C10.25 11.7593 10.3344 11.8437 10.4375 11.8437H17.7969V13.625C17.7969 13.782 17.9797 13.8711 18.1016 13.7726L21.4274 11.1476C21.4498 11.1301 21.4679 11.1077 21.4804 11.0821C21.4928 11.0565 21.4993 11.0284 21.4993 11C21.4993 10.9715 21.4928 10.9434 21.4804 10.9178C21.4679 10.8923 21.4498 10.8699 21.4274 10.8523Z" fill="#413185"/>
</svg>
