<svg width="21" height="21" viewBox="0 0 21 21" fill="none" xmlns="http://www.w3.org/2000/svg">
<path d="M19.25 6.59312V14.875C19.25 15.5446 18.9942 16.1888 18.5349 16.676C18.0755 17.1631 17.4474 17.4563 16.779 17.4956L16.625 17.5H4.375C3.70544 17.5 3.06117 17.2442 2.57402 16.7849C2.08687 16.3255 1.79366 15.6974 1.75438 15.029L1.75 14.875V6.59312L10.0144 12.103L10.1159 12.1608C10.2355 12.2192 10.3669 12.2496 10.5 12.2496C10.6331 12.2496 10.7645 12.2192 10.8841 12.1608L10.9856 12.103L19.25 6.59312Z" fill="#8CD4FD"/>
<path d="M16.6248 3.5C17.5698 3.5 18.3984 3.99875 18.8604 4.74863L10.4998 10.3224L2.13916 4.74863C2.35855 4.3923 2.65997 4.0936 3.01828 3.87746C3.37659 3.66132 3.78139 3.534 4.19891 3.50612L4.37479 3.5H16.6248Z" fill="#8CD4FD"/>
</svg>
