<svg width="18" height="18" viewBox="0 0 18 18" fill="none" xmlns="http://www.w3.org/2000/svg">
<path d="M9 14.0625C4.6275 14.0625 2.5725 9.42 2.4825 9.225C2.45279 9.15371 2.4375 9.07724 2.4375 9C2.4375 8.92276 2.45279 8.84629 2.4825 8.775C2.5725 8.58 4.6275 3.9375 9 3.9375C13.3725 3.9375 15.4275 8.58 15.5175 8.775C15.5472 8.84629 15.5625 8.92276 15.5625 9C15.5625 9.07724 15.5472 9.15371 15.5175 9.225C15.4275 9.42 13.3725 14.0625 9 14.0625ZM3.6225 9C4.065 9.8625 5.8725 12.9375 9 12.9375C12.1275 12.9375 13.935 9.8625 14.3775 9C13.935 8.1375 12.1275 5.0625 9 5.0625C5.8725 5.0625 4.065 8.1375 3.6225 9Z" fill="#949494"/>
<path d="M9 11.4375C8.51791 11.4375 8.04664 11.2945 7.6458 11.0267C7.24495 10.7589 6.93253 10.3782 6.74804 9.93279C6.56356 9.4874 6.51529 8.9973 6.60934 8.52447C6.70339 8.05164 6.93554 7.61732 7.27643 7.27643C7.61732 6.93554 8.05164 6.70339 8.52447 6.60934C8.9973 6.51529 9.4874 6.56356 9.93279 6.74804C10.3782 6.93253 10.7589 7.24495 11.0267 7.6458C11.2945 8.04664 11.4375 8.51791 11.4375 9C11.4355 9.64586 11.1781 10.2647 10.7214 10.7214C10.2647 11.1781 9.64586 11.4355 9 11.4375ZM9 7.6875C8.74041 7.6875 8.48665 7.76448 8.27082 7.9087C8.05498 8.05292 7.88675 8.2579 7.78741 8.49773C7.68807 8.73756 7.66208 9.00146 7.71272 9.25606C7.76336 9.51066 7.88837 9.74452 8.07192 9.92808C8.25548 10.1116 8.48935 10.2366 8.74395 10.2873C8.99855 10.3379 9.26245 10.3119 9.50227 10.2126C9.7421 10.1133 9.94709 9.94503 10.0913 9.72919C10.2355 9.51335 10.3125 9.25959 10.3125 9C10.3105 8.65251 10.1716 8.31982 9.9259 8.0741C9.68019 7.82838 9.34749 7.68947 9 7.6875Z" fill="#949494"/>
</svg>
