<svg width="27" height="27" viewBox="0 0 27 27" fill="none" xmlns="http://www.w3.org/2000/svg">
<path d="M7.80711 11.8909C7.73837 12.0518 7.70371 12.2251 7.7053 12.4C7.70922 12.5785 7.74365 12.7551 7.80711 12.9221C7.86729 13.076 7.96143 13.2143 8.08252 13.3267C8.20521 13.4442 8.34618 13.5356 8.5002 13.6034C8.66144 13.6723 8.83523 13.707 9.01056 13.7052C9.18642 13.7133 9.3616 13.6783 9.52092 13.6034C9.67635 13.5337 9.81787 13.4364 9.9386 13.3163C10.0597 13.1967 10.1556 13.0539 10.2204 12.8965C10.2852 12.7391 10.3176 12.5702 10.3158 12.4C10.316 12.2252 10.2814 12.0522 10.214 11.8909C10.1493 11.7331 10.0519 11.5907 9.92816 11.4732C9.80558 11.3584 9.66434 11.2653 9.51048 11.1978C9.35275 11.1293 9.18253 11.0942 9.01056 11.0947C8.83459 11.0888 8.65972 11.1246 8.5002 11.1991C8.18954 11.3324 7.94158 11.5808 7.80711 11.8909ZM7.80711 17.1107C7.73837 17.2715 7.70371 17.4448 7.7053 17.6197C7.70937 17.7979 7.7438 17.974 7.80711 18.1405C7.86698 18.2953 7.96114 18.4346 8.08252 18.5478C8.20521 18.6626 8.34618 18.7566 8.5002 18.8219C8.66134 18.8912 8.83513 18.9264 9.01056 18.925C9.18642 18.933 9.3616 18.8981 9.52092 18.8232C9.83206 18.6893 10.0801 18.4412 10.214 18.1301C10.282 17.9688 10.317 17.7955 10.317 17.6204C10.317 17.4453 10.282 17.272 10.214 17.1107C10.1494 16.9524 10.052 16.8096 9.92816 16.6917C9.80585 16.5768 9.66453 16.4841 9.51048 16.4176C9.35301 16.3481 9.18268 16.3125 9.01056 16.3132C8.83454 16.3067 8.65953 16.3425 8.5002 16.4176C8.18906 16.5515 7.94104 16.7995 7.80711 17.1107ZM12.9903 13.0526C12.8033 13.0557 12.6224 12.9865 12.4852 12.8594V12.8542C12.4195 12.7976 12.3667 12.7275 12.3306 12.6486C12.2945 12.5698 12.2758 12.4841 12.2758 12.3974C12.2758 12.3106 12.2945 12.2249 12.3306 12.1461C12.3667 12.0673 12.4195 11.9971 12.4852 11.9405C12.6227 11.8131 12.8042 11.7439 12.9916 11.7474H18.7348C18.9225 11.7457 19.1035 11.8168 19.2399 11.9458C19.3054 12.0025 19.358 12.0726 19.394 12.1515C19.43 12.2303 19.4486 12.3159 19.4486 12.4026C19.4486 12.4893 19.43 12.5749 19.394 12.6537C19.358 12.7325 19.3054 12.8027 19.2399 12.8594C19.1027 12.9865 18.9218 13.0557 18.7348 13.0526H12.9903ZM12.4852 18.0805C12.623 18.2074 12.8043 18.2766 12.9916 18.2737H18.7348C18.871 18.2755 19.0051 18.2391 19.1218 18.1688C19.2385 18.0985 19.3332 17.9969 19.3952 17.8756C19.4498 17.7566 19.4641 17.6231 19.4361 17.4952C19.4081 17.3673 19.3392 17.2521 19.2399 17.1668C19.1031 17.0385 18.9223 16.9675 18.7348 16.9684H12.9916C12.8555 16.9671 12.7217 17.0038 12.6052 17.0744C12.4888 17.1449 12.3943 17.2465 12.3325 17.3678C12.2781 17.4865 12.2637 17.6197 12.2915 17.7472C12.3193 17.8748 12.3877 17.9899 12.4865 18.0753L12.4852 18.0805ZM8.35793 3.91577C7.3194 3.91577 6.3234 4.32833 5.58905 5.06268C4.85469 5.79703 4.44214 6.79303 4.44214 7.83156V18.2737C4.44214 19.3122 4.85469 20.3082 5.58905 21.0425C6.3234 21.7769 7.3194 22.1895 8.35793 22.1895H18.8C19.8386 22.1895 20.8346 21.7769 21.5689 21.0425C22.3033 20.3082 22.7158 19.3122 22.7158 18.2737V7.83156C22.7158 6.79303 22.3033 5.79703 21.5689 5.06268C20.8346 4.32833 19.8386 3.91577 18.8 3.91577H8.35793ZM5.7474 18.2737V9.13682H21.4106V18.2737C21.4106 18.966 21.1355 19.63 20.646 20.1196C20.1564 20.6092 19.4924 20.8842 18.8 20.8842H8.35793C7.66557 20.8842 7.00158 20.6092 6.51201 20.1196C6.02244 19.63 5.7474 18.966 5.7474 18.2737Z" fill="#413185"/>
</svg>
