<svg width="27" height="27" viewBox="0 0 27 27" fill="none" xmlns="http://www.w3.org/2000/svg">
<path fill-rule="evenodd" clip-rule="evenodd" d="M12.6401 2.81392C12.9066 2.66592 13.2065 2.58826 13.5113 2.58826C13.8162 2.58826 14.116 2.66592 14.3826 2.81392L22.2142 7.1648C22.7841 7.48133 23.1376 8.08175 23.1376 8.73438V17.3709C23.1376 18.0235 22.7841 18.6239 22.2142 18.9404L14.3826 23.2913C14.116 23.4393 13.8162 23.517 13.5113 23.517C13.2065 23.517 12.9066 23.4393 12.6401 23.2913L4.80848 18.9404C4.52853 18.785 4.29527 18.5575 4.13288 18.2815C3.9705 18.0055 3.88492 17.6911 3.88501 17.3709V8.73438C3.88501 8.08175 4.23852 7.48133 4.80848 7.1648L12.6401 2.81392ZM13.5907 4.24101C13.5665 4.22749 13.5391 4.22039 13.5113 4.22039C13.4835 4.22039 13.4562 4.22749 13.4319 4.24101L5.60034 8.59189C5.57512 8.60594 5.55408 8.62643 5.53936 8.65127C5.52465 8.67612 5.51679 8.70442 5.51659 8.73329V17.372C5.51659 17.4307 5.54922 17.4851 5.60034 17.5134L13.4319 21.8642C13.4562 21.8778 13.4835 21.8849 13.5113 21.8849C13.5391 21.8849 13.5665 21.8778 13.5907 21.8642L21.4223 17.5134C21.4475 17.4993 21.4686 17.4788 21.4833 17.454C21.498 17.4291 21.5059 17.4008 21.5061 17.372V8.73438C21.5061 8.70532 21.4983 8.67679 21.4836 8.65174C21.4688 8.62669 21.4477 8.60603 21.4223 8.59189L13.5907 4.24101Z" fill="#413185"/>
<path fill-rule="evenodd" clip-rule="evenodd" d="M8.34473 13.0526C8.34473 11.6823 8.88907 10.3681 9.85801 9.39921C10.8269 8.43027 12.1411 7.88593 13.5114 7.88593C14.8817 7.88593 16.1958 8.43027 17.1648 9.39921C18.1337 10.3681 18.6781 11.6823 18.6781 13.0526C18.6781 14.4229 18.1337 15.737 17.1648 16.706C16.1958 17.6749 14.8817 18.2193 13.5114 18.2193C12.1411 18.2193 10.8269 17.6749 9.85801 16.706C8.88907 15.737 8.34473 14.4229 8.34473 13.0526ZM13.5114 9.5175C12.5738 9.5175 11.6747 9.88995 11.0117 10.5529C10.3488 11.2159 9.97631 12.115 9.97631 13.0526C9.97631 13.9902 10.3488 14.8893 11.0117 15.5523C11.6747 16.2152 12.5738 16.5877 13.5114 16.5877C14.449 16.5877 15.3481 16.2152 16.0111 15.5523C16.674 14.8893 17.0465 13.9902 17.0465 13.0526C17.0465 12.115 16.674 11.2159 16.0111 10.5529C15.3481 9.88995 14.449 9.5175 13.5114 9.5175Z" fill="#413185"/>
</svg>
