<svg width="20" height="20" viewBox="0 0 20 20" fill="none" xmlns="http://www.w3.org/2000/svg">
<path d="M16.4168 2.66665H14.5835V1.74998C14.5835 1.50686 14.4869 1.27371 14.315 1.1018C14.1431 0.92989 13.9099 0.833313 13.6668 0.833313C13.4237 0.833313 13.1906 0.92989 13.0186 1.1018C12.8467 1.27371 12.7502 1.50686 12.7502 1.74998V2.66665H7.25016V1.74998C7.25016 1.50686 7.15359 1.27371 6.98168 1.1018C6.80977 0.92989 6.57661 0.833313 6.3335 0.833313C6.09038 0.833313 5.85722 0.92989 5.68532 1.1018C5.51341 1.27371 5.41683 1.50686 5.41683 1.74998V2.66665H3.5835C2.85415 2.66665 2.15468 2.95638 1.63895 3.4721C1.12323 3.98783 0.833496 4.6873 0.833496 5.41665V16.4166C0.833496 17.146 1.12323 17.8455 1.63895 18.3612C2.15468 18.8769 2.85415 19.1666 3.5835 19.1666H16.4168C17.1462 19.1666 17.8456 18.8769 18.3614 18.3612C18.8771 17.8455 19.1668 17.146 19.1668 16.4166V5.41665C19.1668 4.6873 18.8771 3.98783 18.3614 3.4721C17.8456 2.95638 17.1462 2.66665 16.4168 2.66665ZM17.3335 16.4166C17.3335 16.6598 17.2369 16.8929 17.065 17.0648C16.8931 17.2367 16.6599 17.3333 16.4168 17.3333H3.5835C3.34038 17.3333 3.10722 17.2367 2.93532 17.0648C2.76341 16.8929 2.66683 16.6598 2.66683 16.4166V9.99998H17.3335V16.4166ZM17.3335 8.16665H2.66683V5.41665C2.66683 5.17353 2.76341 4.94037 2.93532 4.76847C3.10722 4.59656 3.34038 4.49998 3.5835 4.49998H5.41683V5.41665C5.41683 5.65976 5.51341 5.89292 5.68532 6.06483C5.85722 6.23674 6.09038 6.33331 6.3335 6.33331C6.57661 6.33331 6.80977 6.23674 6.98168 6.06483C7.15359 5.89292 7.25016 5.65976 7.25016 5.41665V4.49998H12.7502V5.41665C12.7502 5.65976 12.8467 5.89292 13.0186 6.06483C13.1906 6.23674 13.4237 6.33331 13.6668 6.33331C13.9099 6.33331 14.1431 6.23674 14.315 6.06483C14.4869 5.89292 14.5835 5.65976 14.5835 5.41665V4.49998H16.4168C16.6599 4.49998 16.8931 4.59656 17.065 4.76847C17.2369 4.94037 17.3335 5.17353 17.3335 5.41665V8.16665Z" fill="#787878"/>
</svg>
