<svg width="11" height="11" viewBox="0 0 11 11" fill="none" xmlns="http://www.w3.org/2000/svg">
<path d="M10.395 7.56556C9.64333 7.56556 8.91611 7.44333 8.23778 7.22333C8.13151 7.18731 8.01724 7.18196 7.90807 7.20791C7.79891 7.23385 7.69926 7.29002 7.62056 7.37L6.66111 8.57389C4.93167 7.74889 3.31222 6.19056 2.45056 4.4L3.64222 3.38556C3.80722 3.21444 3.85611 2.97611 3.78889 2.76222C3.56278 2.08389 3.44667 1.35667 3.44667 0.605C3.44667 0.275 3.17167 0 2.84167 0H0.727222C0.397222 0 0 0.146667 0 0.605C0 6.28222 4.72389 11 10.395 11C10.8289 11 11 10.615 11 10.2789V8.17056C11 7.84056 10.725 7.56556 10.395 7.56556Z" fill="#413185"/>
</svg>
